<?xml version="1.0" encoding="UTF-8" standalone="no"?>
<!-- Created with Inkscape (http://www.inkscape.org/) -->
<svg id="svg3221" xmlns:rdf="http://www.w3.org/1999/02/22-rdf-syntax-ns#" xmlns="http://www.w3.org/2000/svg" height="111" width="111" version="1.1" xmlns:cc="http://creativecommons.org/ns#" xmlns:dc="http://purl.org/dc/elements/1.1/">
<metadata id="metadata3226">
<rdf:RDF>
<cc:Work rdf:about="">
<dc:format>image/svg+xml</dc:format>
<dc:type rdf:resource="http://purl.org/dc/dcmitype/StillImage"/>
<dc:title/>
</cc:Work>
</rdf:RDF>
</metadata>
<g id="layer1" transform="translate(-592.28505,-711.9341)">
<g id="g3104" fill-rule="nonzero" transform="translate(236.28505,590.93473)">
<rect id="rect4159-7-5-34" stroke-linejoin="miter" stroke-dasharray="none" rx="15" ry="15" height="109" width="109" stroke="#000" stroke-linecap="butt" stroke-miterlimit="4" y="122" x="357" stroke-width="2" fill="#FFF"/>
<path id="path3657-0-9-4-8-2-4-5-1-1-2-1" d="m288.85,83.32c0,7.9251-6.4246,14.35-14.35,14.35-7.9251,0-14.35-6.4246-14.35-14.35,0-7.9251,6.4246-14.35,14.35-14.35,7.9251,0,14.35,6.4246,14.35,14.35z" transform="matrix(1.0104752,0,0,1.0104752,100.12903,126.30771)" fill="#000"/>
<path id="path3657-0-9-4-8-2-4-5-1-1-5-7-4" d="m288.85,83.32c0,7.9251-6.4246,14.35-14.35,14.35-7.9251,0-14.35-6.4246-14.35-14.35,0-7.9251,6.4246-14.35,14.35-14.35,7.9251,0,14.35,6.4246,14.35,14.35z" transform="matrix(1.0104752,0,0,1.0104752,168.12903,58.307701)" fill="#000"/>
<path id="path3657-0-9-4-8-2-4-5-1-1-5-7-4-2" d="m288.85,83.32c0,7.9251-6.4246,14.35-14.35,14.35-7.9251,0-14.35-6.4246-14.35-14.35,0-7.9251,6.4246-14.35,14.35-14.35,7.9251,0,14.35,6.4246,14.35,14.35z" transform="matrix(1.0104752,0,0,1.0104752,100.12903,58.307707)" fill="#000"/>
<path id="path3657-0-9-4-8-2-4-5-1-1-2-1-3" d="m288.85,83.32c0,7.9251-6.4246,14.35-14.35,14.35-7.9251,0-14.35-6.4246-14.35-14.35,0-7.9251,6.4246-14.35,14.35-14.35,7.9251,0,14.35,6.4246,14.35,14.35z" transform="matrix(1.0104752,0,0,1.0104752,168.12903,126.30771)" fill="#000"/>
</g>
</g>
</svg>
